<svg height="512" viewBox="0 0 40 60" width="512" xmlns="http://www.w3.org/2000/svg"><g id="Page-1" fill="none" fill-rule="evenodd"><g id="021---Coffee-Beans" fill="#c7a17a" fill-rule="nonzero"><path id="Shape" d="m3.124 60h33.752c.8278413.0014915 1.6195036-.3391663 2.1875861-.9413339.5680826-.6021675.8620858-1.412315.8124139-2.2386661l-2.876-47.85v-5.97c0-1.65685425-1.3431458-3-3-3h-28c-1.65685425 0-3 1.34314575-3 3v5.94l-2.871 47.881c-.04938492.8261835.24474663 1.6360645.81279705 2.2380086.56805043.6019441 1.35954613.9424661 2.18720295.9409914zm29.688-29h3.506l.481 8h-3.487zm-1.442 9 .375 6h-23.491l.375-6 1-16h20.742zm-27.689-9h3.507l-.5 8h-3.488zm33.919 26.686c-.1884028.2014061-.4522127.3151923-.728.314h-33.748c-.27594711.0004972-.53983452-.1130554-.72919537-.313778-.18936086-.2007225-.28736193-.4707716-.27080463-.746222l.957-15.94h3.482l-.3 4.875c-.03455226.5517384.16080688 1.0931702.5396897 1.4957332.37888283.402563.90749207.6303476 1.4603103.6292668h23.483c.5528182.0010808 1.0814275-.2267038 1.4603103-.6292668s.574242-.9439948.5396897-1.4957332l-.309-4.875h3.482l.956 15.94c.0164758.2761503-.0832271.546617-.275.746zm-31.6-55.686h28c.5522847 0 1 .44771525 1 1v5h-1c-.5522847 0-1 .44771525-1 1s.4477153 1 1 1h1.058l1.142 19h-3.513l-.32-5.125c-.0660944-1.0554745-.9424601-1.8770674-2-1.875h-20.738c-1.05753993-.0020674-1.93390565.8195255-2 1.875l-.316 5.125h-3.513l1.14-19h1.06c.55228475 0 1-.44771525 1-1s-.44771525-1-1-1h-1v-5c0-.55228475.44771525-1 1-1z"/><path id="Shape" d="m10 54h-3.691l.122-2.034c.03302524-.5511415-.38687159-1.0247565-.938-1.058-.26559193-.0197287-.52786946.0688211-.72715071.2454995-.19928124.1766785-.31861598.426458-.33084929.6925005l-.122 2.035c-.03282765.5507331.1633028 1.090565.54199238 1.4917866s.9062979.6281909 1.45800762.6272134h3.687c.5522847 0 1-.4477153 1-1s-.4477153-1-1-1z"/><path id="Shape" d="m34.507 50.908c-.5511284.0332435-.9710252.5068585-.938 1.058l.122 2.034h-3.691c-.5522847 0-1 .4477153-1 1s.4477153 1 1 1h3.691c.5518942.0009944 1.079669-.2261109 1.4583907-.6275559.3787218-.401445.5747239-.9415433.5416093-1.4924441l-.123-2.034c-.0135599-.2661058-.1337069-.5155404-.3333317-.692023s-.4619075-.2651432-.7276683-.245977z"/><path id="Shape" d="m10 10h2c.5522847 0 1-.44771525 1-1s-.4477153-1-1-1h-2c-.55228475 0-1 .44771525-1 1s.44771525 1 1 1z"/><path id="Shape" d="m16 10h2c.5522847 0 1-.44771525 1-1s-.4477153-1-1-1h-2c-.5522847 0-1 .44771525-1 1s.4477153 1 1 1z"/><path id="Shape" d="m22 10h2c.5522847 0 1-.44771525 1-1s-.4477153-1-1-1h-2c-.5522847 0-1 .44771525-1 1s.4477153 1 1 1z"/><path id="Shape" d="m28 10h2c.5522847 0 1-.44771525 1-1s-.4477153-1-1-1h-2c-.5522847 0-1 .44771525-1 1s.4477153 1 1 1z"/><path id="Shape" d="m15.1 30.1c-3.479 3.467-4.111 8.5-1.4 11.214 1.1621025 1.1163562 2.7231459 1.720387 4.334 1.677 2.6048126-.092838 5.0695948-1.2024567 6.866-3.091 3.478-3.467 4.11-8.5 1.4-11.213s-7.737-2.068-11.2 1.413zm1.414 1.414c1.4209944-1.5144503 3.3747502-2.4176456 5.449-2.519 1.0207907-.0252222 2.0142586.3313707 2.786 1-.3710241.1524161-.7620159.2507534-1.161.292-2.4409111.1996588-4.377941 2.1379586-4.576 4.579-.0711489 1.5606673-1.3194077 2.8102263-2.88 2.883-.6773168.068103-1.3366597.2585196-1.946.562-.598-2.026.247-4.729 2.326-6.801zm6.978 6.978c-2.629 2.637-6.277 3.291-8.242 1.526.372741-.1560643.7661874-.2571208 1.168-.3 2.4409111-.1996588 4.377941-2.1379586 4.576-4.579.0711489-1.5606673 1.3194077-2.8102263 2.88-2.883.6773421-.0679719 1.3367081-.2583952 1.946-.562.592 2.021-.253 4.724-2.33 6.794z"/><path id="Shape" d="m8 15h2c.5522847 0 1-.4477153 1-1s-.4477153-1-1-1h-2c-.55228475 0-1 .4477153-1 1s.44771525 1 1 1z"/><path id="Shape" d="m14 15h18c.5522847 0 1-.4477153 1-1s-.4477153-1-1-1h-18c-.5522847 0-1 .4477153-1 1s.4477153 1 1 1z"/></g></g></svg>