<svg height="512" viewBox="0 0 60 60" width="512" xmlns="http://www.w3.org/2000/svg"><g id="Page-1" fill="none" fill-rule="evenodd"><g id="039---Searching-for-Beans" fill="#c7a17a" fill-rule="nonzero" transform="translate(-1)"><path id="Shape" d="m6.989 0c-.28326516.00622394-.56554358.03565581-.844.088-.006 0-.011 0-.017 0s-.028.005-.038.006c-1.147044.20817158-2.2012026.76722155-3.017 1.6-1.36022176 1.42546377-2.10487308 3.32894053-2.073 5.299 0 3.853 2.693 7 6.011 7.007.27652692-.0065477.55208048-.035307.824-.086h.008.029c.014 0 .025-.008.038-.009 1.147044-.2081716 2.2012026-.7672215 3.017-1.6 1.3606252-1.4248024 2.1053659-3.32814841 2.073-5.298 0-3.853-2.693-6.996-6.011-7.007zm-3.989 6.994c-.03547051-1.44356253.49994996-2.84284261 1.49-3.894.28004608-.27840671.60069105-.51273716.951-.695.19725597.45121217.46268782.86942754.787 1.24.38316124.34709635.60172704.84000057.60172704 1.357s-.2185658 1.00990365-.60172704 1.357c-1.41982182 1.47210099-1.41982182 3.803899 0 5.276.089.106.169.2.24.295-1.95-.336-3.468-2.412-3.468-4.936zm6.51 3.9c-.28025603.2778883-.60087105.5118597-.951.694-.19748571-.4507858-.46290097-.8686377-.787-1.239-.38316124-.3470963-.60172704-.84000057-.60172704-1.357s.2185658-1.00990365.60172704-1.357c1.41982182-1.47210099 1.41982182-3.80389901 0-5.276-.089-.106-.169-.2-.24-.295 1.95.342 3.468 2.418 3.468 4.946.0344101 1.44218912-.5009353 2.83983593-1.49 3.89z"/><path id="Shape" d="m6.989 23c-.28293747.0061707-.56488803.0356032-.843.088-.007 0-.012 0-.018 0s-.025.008-.038.009c-1.14644258.2067881-2.20053147.7640541-3.017 1.595-1.36071184 1.4259597-2.10540112 3.330252-2.073 5.301 0 3.853 2.693 7 6.011 7.007.27652692-.0065477.55208048-.035307.824-.086h.008.029c.014 0 .025-.008.038-.009 1.14644258-.2067881 2.2005315-.7640541 3.017-1.595 1.3618518-1.4260414 2.1066877-3.3314271 2.073-5.303 0-3.853-2.693-6.996-6.011-7.007zm-3.989 6.994c-.03547051-1.4435625.49994996-2.8428426 1.49-3.894.2796942-.2801791.60035771-.516209.951-.7.19725597.4512122.46268782.8694275.787 1.24.38316124.3470963.60172704.8400006.60172704 1.357s-.2185658 1.0099037-.60172704 1.357c-1.41982182 1.472101-1.41982182 3.803899 0 5.276.089.106.169.2.24.295-1.95-.331-3.468-2.407-3.468-4.931zm8 .016c.0344101 1.4421891-.5009353 2.8398359-1.49 3.89-.28025603.2778883-.60087105.5118597-.951.694-.19748571-.4507858-.46290097-.8686377-.787-1.239-.38316124-.3470963-.60172704-.8400006-.60172704-1.357s.2185658-1.0099037.60172704-1.357c1.41982182-1.472101 1.41982182-3.803899 0-5.276-.089-.106-.169-.2-.24-.3 1.95.341 3.468 2.417 3.468 4.945z"/><path id="Shape" d="m13 53.007c0-3.853-2.693-7-6.011-7.007-.28293095.006274-.56487307.0357057-.843.088h-.018c-.014 0-.025.008-.038.009-1.14644258.2067881-2.20053147.7640541-3.017 1.595-1.36071184 1.4259597-2.10540112 3.330252-2.073 5.301 0 3.853 2.693 7 6.011 7.007.27652692-.0065477.55208048-.035307.824-.086h.008.029c.014 0 .025-.008.038-.009 1.14644258-.2067881 2.2005315-.7640541 3.017-1.595 1.3618518-1.4260414 2.1066877-3.3314271 2.073-5.303zm-10-.013c-.03547051-1.4435625.49994996-2.8428426 1.49-3.894.2796942-.2801791.60035771-.516209.951-.7.19725597.4512122.46268782.8694275.787 1.24.38316124.3470963.60172704.8400006.60172704 1.357s-.2185658 1.0099037-.60172704 1.357c-1.41982182 1.472101-1.41982182 3.803899 0 5.276.089.106.169.2.24.295-1.95-.331-3.468-2.407-3.468-4.931zm5.559 4.6c-.19748571-.4507858-.46290097-.8686377-.787-1.239-.38316124-.3470963-.60172704-.8400006-.60172704-1.357s.2185658-1.0099037.60172704-1.357c1.41982182-1.472101 1.41982182-3.803899 0-5.276-.089-.106-.169-.2-.24-.295 1.95.336 3.468 2.412 3.468 4.94.0344101 1.4421891-.5009353 2.8398359-1.49 3.89-.28032586.277534-.60093722.5111656-.951.693z"/><path id="Shape" d="m31.011 14c.2765269-.0065477.5520805-.035307.824-.086h.008.029c.014 0 .025-.008.038-.009 1.147044-.2081716 2.2012026-.7672215 3.017-1.6 1.3606252-1.4248024 2.1053659-3.32814841 2.073-5.298 0-3.853-2.693-7-6.011-7.007-.282931.00627399-.5648731.03570567-.843.088-.007 0-.012 0-.018 0s-.028.005-.038.006c-1.147044.20817158-2.2012026.76722155-3.017 1.6-1.3602218 1.42546377-2.1048731 3.32894053-2.073 5.299 0 3.853 2.693 6.996 6.011 7.007zm3.989-6.99c.0344101 1.44218912-.5009353 2.83983593-1.49 3.89-.280256.2778883-.6008711.5118597-.951.694-.1974857-.4507858-.462901-.8686377-.787-1.239-.3831612-.3470963-.601727-.84000057-.601727-1.357s.2185658-1.00990365.601727-1.357c1.4198218-1.47210099 1.4198218-3.80389901 0-5.276-.089-.106-.169-.2-.24-.295 1.95.336 3.468 2.412 3.468 4.94zm-8-.016c-.0354705-1.44356253.49995-2.84284261 1.49-3.894.2800461-.27840671.600691-.51273716.951-.695.197256.45121217.4626878.86942754.787 1.24.3831612.34709635.601727.84000057.601727 1.357s-.2185658 1.00990365-.601727 1.357c-1.4198218 1.47210099-1.4198218 3.803899 0 5.276.089.106.169.2.24.295-1.95-.336-3.468-2.412-3.468-4.936z"/><path id="Shape" d="m31.011 37c.2765269-.0065477.5520805-.035307.824-.086h.008.029c.014 0 .025-.008.038-.009 1.1464426-.2067881 2.2005315-.7640541 3.017-1.595 1.3618518-1.4260414 2.1066877-3.3314271 2.073-5.303 0-3.853-2.693-7-6.011-7.007-.282931.006274-.5648731.0357057-.843.088-.006 0-.012 0-.018 0s-.025.008-.038.009c-1.1464426.2067881-2.2005315.7640541-3.017 1.595-1.3607118 1.4259597-2.1054011 3.330252-2.073 5.301 0 3.853 2.693 6.996 6.011 7.007zm3.989-6.99c.0344101 1.4421891-.5009353 2.8398359-1.49 3.89-.280256.2778883-.6008711.5118597-.951.694-.1974857-.4507858-.462901-.8686377-.787-1.239-.3831612-.3470963-.601727-.8400006-.601727-1.357s.2185658-1.0099037.601727-1.357c1.4198218-1.472101 1.4198218-3.803899 0-5.276-.089-.106-.169-.2-.24-.3 1.95.341 3.468 2.417 3.468 4.945zm-8-.016c-.0354705-1.4435625.49995-2.8428426 1.49-3.894.2796942-.2801791.6003577-.516209.951-.7.197256.4512122.4626878.8694275.787 1.24.3831612.3470963.601727.8400006.601727 1.357s-.2185658 1.0099037-.601727 1.357c-1.4198218 1.472101-1.4198218 3.803899 0 5.276.089.106.169.2.24.295-1.95-.331-3.468-2.407-3.468-4.931z"/><path id="Shape" d="m31.011 60c.2765269-.0065477.5520805-.035307.824-.086h.008.029c.014 0 .025-.008.038-.009 1.1464426-.2067881 2.2005315-.7640541 3.017-1.595 1.3618518-1.4260414 2.1066877-3.3314271 2.073-5.303 0-3.853-2.693-7-6.011-7.007-.282931.006274-.5648731.0357057-.843.088-.006 0-.011 0-.018 0s-.025.008-.038.009c-1.1464426.2067881-2.2005315.7640541-3.017 1.595-1.3607118 1.4259597-2.1054011 3.330252-2.073 5.301 0 3.853 2.693 6.996 6.011 7.007zm3.989-6.99c.0344101 1.4421891-.5009353 2.8398359-1.49 3.89-.280256.2778883-.6008711.5118597-.951.694-.1974857-.4507858-.462901-.8686377-.787-1.239-.3831612-.3470963-.601727-.8400006-.601727-1.357s.2185658-1.0099037.601727-1.357c1.4198218-1.472101 1.4198218-3.803899 0-5.276-.089-.106-.169-.2-.24-.295 1.95.336 3.468 2.412 3.468 4.94zm-8-.016c-.0354705-1.4435625.49995-2.8428426 1.49-3.894.2796942-.2801791.6003577-.516209.951-.7.197256.4512122.4626878.8694275.787 1.24.3831612.3470963.601727.8400006.601727 1.357s-.2185658 1.0099037-.601727 1.357c-1.4198218 1.472101-1.4198218 3.803899 0 5.276.089.106.169.2.24.295-1.95-.331-3.468-2.407-3.468-4.931z"/><path id="Shape" d="m54.989 0c-.2829375.00617066-.564888.03560322-.843.088-.007 0-.012 0-.018 0s-.028.005-.038.006c-1.147044.20817158-2.2012026.76722155-3.017 1.6-1.3602218 1.42546377-2.1048731 3.32894053-2.073 5.299 0 3.853 2.693 7 6.011 7.007.2765269-.0065477.5520805-.035307.824-.086h.008.029c.014 0 .025-.008.038-.009 1.147044-.2081716 2.2012026-.7672215 3.017-1.6 1.3606252-1.4248024 2.1053659-3.32814841 2.073-5.298 0-3.853-2.693-6.996-6.011-7.007zm-3.989 6.994c-.0354705-1.44356253.49995-2.84284261 1.49-3.894.2800461-.27840671.600691-.51273716.951-.695.197256.45121217.4626878.86942754.787 1.24.3831612.34709635.601727.84000057.601727 1.357s-.2185658 1.00990365-.601727 1.357c-1.4198218 1.47210099-1.4198218 3.803899 0 5.276.089.106.169.2.24.295-1.95-.336-3.468-2.412-3.468-4.936zm6.51 3.9c-.280256.2778883-.6008711.5118597-.951.694-.1974857-.4507858-.462901-.8686377-.787-1.239-.3831612-.3470963-.601727-.84000057-.601727-1.357s.2185658-1.00990365.601727-1.357c1.4198218-1.47210099 1.4198218-3.80389901 0-5.276-.089-.106-.169-.2-.24-.295 1.95.342 3.468 2.418 3.468 4.946.0344101 1.44218912-.5009353 2.83983593-1.49 3.89z"/><path id="Shape" d="m54.989 23c-.282931.006274-.5648731.0357057-.843.088-.007 0-.012 0-.018 0s-.025.008-.038.009c-1.1464426.2067881-2.2005315.7640541-3.017 1.595-1.3607118 1.4259597-2.1054011 3.330252-2.073 5.301 0 3.853 2.693 7 6.011 7.007.2765269-.0065477.5520805-.035307.824-.086h.008.029c.014 0 .025-.008.038-.009 1.1464426-.2067881 2.2005315-.7640541 3.017-1.595 1.3618518-1.4260414 2.1066877-3.3314271 2.073-5.303 0-3.853-2.693-6.996-6.011-7.007zm-3.989 6.994c-.0354705-1.4435625.49995-2.8428426 1.49-3.894.2796942-.2801791.6003577-.516209.951-.7.197256.4512122.4626878.8694275.787 1.24.3831612.3470963.601727.8400006.601727 1.357s-.2185658 1.0099037-.601727 1.357c-1.4198218 1.472101-1.4198218 3.803899 0 5.276.089.106.169.2.24.295-1.95-.331-3.468-2.407-3.468-4.931zm8 .016c.0344101 1.4421891-.5009353 2.8398359-1.49 3.89-.280256.2778883-.6008711.5118597-.951.694-.1974857-.4507858-.462901-.8686377-.787-1.239-.3831612-.3470963-.601727-.8400006-.601727-1.357s.2185658-1.0099037.601727-1.357c1.4198218-1.472101 1.4198218-3.803899 0-5.276-.089-.106-.169-.2-.24-.3 1.95.341 3.468 2.417 3.468 4.945z"/><path id="Shape" d="m30.994 43.988c2.3256375.0048128 4.6155142-.5723833 6.661-1.679l2.8 2.8c-.5474341 1.1435843-.3168549 2.5078449.576 3.408l10.605 10.604c.5626237.562719 1.3257625.8788593 2.1215.8788593s1.5588763-.3161403 2.1215-.8788593l4.242-4.243c1.1711458-1.1714996 1.1711458-3.0705004 0-4.242l-10.606-10.607c-.9111803-.8656336-2.2572268-1.0901066-3.4-.567l-2.815-2.812c2.9982897-5.541713 1.9251692-12.4035893-2.6219038-16.7652922s-11.4476488-5.1484601-16.859845-1.922246c-5.4121961 3.2262141-8.002387 9.6704243-6.3284888 15.7448287 1.6738983 6.0744045 7.1994184 10.2822021 13.5002376 10.2807095zm16.4-2.837c.2650514-.0002087.5193437.1048173.707.292l8.024 8.026-2.831 2.823c-.2602871.250712-.3650501.6223558-.2740261.9720992.0910241.3497435.363671.6231628.7131556.7151758.3494845.0920131.7214232-.0116982.9728705-.271275l2.833-2.825 1.168 1.168c.3897159.3903851.3897159 1.0226149 0 1.413l-4.242 4.243c-.1875683.187777-.4420908.2932867-.7075.2932867s-.5199317-.1055097-.7075-.2932867l-8.168-8.167 2.826-2.834c.3784551-.3929089.3721707-1.0166378-.0141242-1.4018415-.3862949-.3852036-1.0100391-.3897235-1.4018758-.0101585l-2.824 2.831-1.025-1.025c-.3870613-.3899205-.3870613-1.0190795 0-1.409l.008-.005s.006-.01.01-.015l4.216-4.215s.01-.005.015-.01v-.008c.1868124-.1847767.4392447-.2879791.702-.287zm-2.83-.413-2.826 2.826-2.369-2.364c1.085748-.7864159 2.0393527-1.7406957 2.825-2.827zm-22.055-19.229c4.6851041-4.6807285 12.2772475-4.6783639 16.959435.0052821s4.6821875 12.2757898 0 16.9594358-12.2743309 4.6860106-16.959435.0052821c-2.2710708-2.2393136-3.5496489-5.2955975-3.5496489-8.485s1.2785781-6.2456864 3.5496489-8.485z"/></g></g></svg>