<svg height="512" viewBox="0 0 60 57" width="512" xmlns="http://www.w3.org/2000/svg"><g id="Page-1" fill="none" fill-rule="evenodd"><g id="049---Washing-Beans" fill="#c7a17a" fill-rule="nonzero"><path id="Shape" d="m52 41h-13.844c2.933-1.733 4.838-4.453 4.844-7.52-.0027294-.5523766-.0647514-1.102864-.185-1.642-1.032-4.545-6.121-7.838-12.105-7.838-.02 0-.042 0-.062 0-4.372 0-8.273 1.732-10.467 4.525-.6817918-1.1792843-1.5159683-2.2636128-2.481-3.225-4.784-4.8-11.7-5.7-15.411-2.008-3.689 3.708-2.789 10.622 2.011 15.408.89793384.8968209 1.90203339 1.680623 2.99 2.334-4.25176525.3929961-7.44548241 4.0557745-7.25579006 8.321448.18969236 4.2656735 3.69592397 7.6305086 7.96579006 7.644552h44c4.418278 0 8-3.581722 8-8s-3.581722-8-8-8zm-32.289-.292c.4489014-.4513241.8383799-.958083 1.159-1.508.6891361.6987946 1.4671327 1.3039777 2.314 1.8h-3.8c.109-.1.222-.188.327-.292zm10.989.252h-.054c-3.754 0-7.122-1.476-8.945-3.862.1417256-.5617558.2301175-1.1356336.264-1.714.6365643-.297808 1.235162-.6707986 1.783-1.111 1.800472-1.617295 4.530528-1.617295 6.331 0 2.514033 2.1534527 6.2215204 2.1564224 8.739.007.6201112-.5427492 1.3621573-.9276663 2.163-1.122.007.107.019.216.019.321-.009 4.128-4.625 7.481-10.3 7.481zm-.047-14.96h.052c4.475 0 8.444 2.18 9.8 5.216-1.0605556.2582916-2.0467368.7590841-2.881 1.463-1.8049609 1.6168492-4.5381026 1.6142626-6.34-.006-2.5133585-2.1528003-6.2206415-2.1528003-8.734 0-.238.179-.464.343-.7.495-.1340676-.8645962-.3579454-1.7128516-.668-2.531 1.591-2.783 5.318-4.637 9.471-4.637zm-22.453-3.006c3.0785052.1406552 5.9812518 1.4745629 8.093 3.719 1.1993403 1.1835621 2.1636672 2.5835666 2.842 4.126l.012.03c.9715338 2.0260235 1.1174774 4.3503643.407 6.482-.9346317-.5721479-1.9900169-.9180075-3.082-1.01-2.417714-.1332121-4.3474861-2.0651389-4.478-4.483-.1060951-1.6040101-.8017239-3.1120963-1.953-4.234-1.11959914-1.1480027-2.62477716-1.8405627-4.225-1.944-.81986002-.0552605-1.61430949-.307385-2.316-.735.07-.079.131-.163.206-.238 1.2077831-1.1503716 2.82693099-1.7675501 4.494-1.713zm-2.489 14.293c-3.255-3.245-4.462-7.559-3.261-10.638.93463169.5721479 1.99001693.9180075 3.082 1.01 1.16887669.0470155 2.27519495.5405817 3.091 1.379.84243703.8174617 1.33892255 1.9271265 1.387 3.1.2579125 3.2977733 2.8763944 5.9179516 6.174 6.178.8205466.0549434 1.6157184.3070794 2.318.735-.07.079-.131.163-.206.238-1.128096 1.0832929-2.6270703 1.6952578-4.191 1.711h-.138c-3.1360755-.0870062-6.10750835-1.422963-8.254-3.711zm46.289 17.713h-44c-3.3137085 0-6-2.6862915-6-6s2.6862915-6 6-6h44c3.3137085 0 6 2.6862915 6 6s-2.6862915 6-6 6z"/><path id="Shape" d="m8 45c-2.209139 0-4 1.790861-4 4s1.790861 4 4 4 4-1.790861 4-4-1.790861-4-4-4zm0 6c-1.1045695 0-2-.8954305-2-2s.8954305-2 2-2 2 .8954305 2 2-.8954305 2-2 2z"/><path id="Shape" d="m19 45c-2.209139 0-4 1.790861-4 4s1.790861 4 4 4 4-1.790861 4-4-1.790861-4-4-4zm0 6c-1.1045695 0-2-.8954305-2-2s.8954305-2 2-2 2 .8954305 2 2-.8954305 2-2 2z"/><path id="Shape" d="m41 45c-2.209139 0-4 1.790861-4 4s1.790861 4 4 4 4-1.790861 4-4-1.790861-4-4-4zm0 6c-1.1045695 0-2-.8954305-2-2s.8954305-2 2-2 2 .8954305 2 2-.8954305 2-2 2z"/><path id="Shape" d="m52 45c-2.209139 0-4 1.790861-4 4s1.790861 4 4 4 4-1.790861 4-4-1.790861-4-4-4zm0 6c-1.1045695 0-2-.8954305-2-2s.8954305-2 2-2 2 .8954305 2 2-.8954305 2-2 2z"/><path id="Shape" d="m30 45c-2.209139 0-4 1.790861-4 4s1.790861 4 4 4 4-1.790861 4-4-1.790861-4-4-4zm0 6c-1.1045695 0-2-.8954305-2-2s.8954305-2 2-2 2 .8954305 2 2-.8954305 2-2 2z"/><path id="Shape" d="m52.164 26.357c-.6558574.2963868-1.098967.9256254-1.157 1.643h-4.007c-1.1045695 0-2 .8954305-2 2v4c0 1.1045695.8954305 2 2 2h4.007c.058033.7173746.5011426 1.3466132 1.157 1.643.2639569.1220315.5511999.1854842.842.186.4776481.0004292.9393516-.1718217 1.3-.485l4.464-3.825c.4432826-.3799643.6984018-.9346573.6984018-1.5185s-.2551192-1.1385357-.6984018-1.5185l-4.47-3.827c-.5911293-.5114355-1.4274634-.6281151-2.136-.298zm.836 9.477v-.834c0-.5522847-.4477153-1-1-1h-5v-4h5c.5522847 0 1-.4477153 1-1v-.826l4.464 3.826z"/><path id="Shape" d="m10 2h2c.5522847 0 1-.44771525 1-1s-.4477153-1-1-1h-2c-.55228475 0-1 .44771525-1 1s.44771525 1 1 1z"/><path id="Shape" d="m16 2h4c.5522847 0 1-.44771525 1-1s-.4477153-1-1-1h-4c-.5522847 0-1 .44771525-1 1s.4477153 1 1 1z"/><path id="Shape" d="m50 0h-2c-.5522847 0-1 .44771525-1 1s.4477153 1 1 1h2c.5522847 0 1-.44771525 1-1s-.4477153-1-1-1z"/><path id="Shape" d="m44 0h-4c-.5522847 0-1 .44771525-1 1s.4477153 1 1 1h4c.5522847 0 1-.44771525 1-1s-.4477153-1-1-1z"/><path id="Shape" d="m30 18c-.5522847 0-1 .4477153-1 1v2c0 .5522847.4477153 1 1 1s1-.4477153 1-1v-2c0-.5522847-.4477153-1-1-1z"/><path id="Shape" d="m31 11c0-.5522847-.4477153-1-1-1s-1 .4477153-1 1v4c0 .5522847.4477153 1 1 1s1-.4477153 1-1z"/><path id="Shape" d="m15.15 15.85c.3904999.3903819 1.0235001.3903819 1.414 0l1.415-1.415c.3789722-.3923789.3735524-1.0160848-.0121814-1.4018186s-1.0094397-.3911536-1.4018186-.0121814l-1.415 1.415c-.3903819.3904999-.3903819 1.0235001 0 1.414z"/><path id="Shape" d="m20.1 11.9c.2651948-.0000566.5195073-.1054506.707-.293l2.828-2.828c.2599566-.25107447.3642126-.62287789.2726972-.97250732-.0915155-.34962944-.3645604-.6226744-.7141899-.71418984-.3496294-.09151544-.7214328.01274058-.9725073.27269716l-2.828 2.828c-.2859079.2859943-.3714219.7160366-.216678 1.0896546.1547439.3736179.5192821.6172591.923678.6173454z"/><path id="Shape" d="m42.021 13.021c-.3903819.3904999-.3903819 1.0235001 0 1.414l1.415 1.415c.3923789.3789722 1.0160848.3735524 1.4018186-.0121814s.3911536-1.0094397.0121814-1.4018186l-1.415-1.415c-.3904999-.3903819-1.0235001-.3903819-1.414 0z"/><path id="Shape" d="m39.9 11.9c.4043959-.0000863.7689341-.2437275.923678-.6173454.1547439-.373618.0692299-.8036603-.216678-1.0896546l-2.828-2.828c-.3923789-.37897221-1.0160848-.37355237-1.4018186.01218142-.3857338.3857338-.3911536 1.00943969-.0121814 1.40181858l2.828 2.828c.1874927.1875494.4418052.2929434.707.293z"/><path id="Shape" d="m11.522 9.653c.1314203.00007978.2615676-.02574578.383-.076l1.848-.764c.5103111-.21152506.7525251-.79668889.541-1.307s-.7966889-.75252506-1.307-.541l-1.847.764c-.4408033.18242398-.6913662.65081738-.5984619 1.11874348.0929042.46792611.5034021.80506938.9804619.80525652z"/><path id="Shape" d="m21.685 4.444c-.1009556-.24564242-.2954784-.44103663-.5406672-.54308917-.2451887-.10205254-.5209022-.10238024-.7663328-.00091083l-3.695 1.534c-.4935975.22142692-.7216032.79524751-.5145881 1.29506057.2070152.49981306.7739802.74436858 1.2795881.55193943l3.7-1.53c.5088484-.21298553.7491248-.79779212.537-1.307z"/><path id="Shape" d="m36.729 19.86c.2112489.5103111.7961889.7527489 1.3065.5415s.7527489-.7961889.5415-1.3065l-.764-1.848c-.2115251-.5103111-.7966889-.7525251-1.307-.541s-.7525251.7966889-.541 1.307z"/><path id="Shape" d="m34.434 14.317c.2214269.4935975.7952475.7216032 1.2950606.5145881.499813-.2070152.7443685-.7739802.5519394-1.2795881l-1.53-3.7c-.1368327-.33011342-.4393848-.56215142-.7936877-.60870752-.354303-.0465561-.7065298.09944268-.9240001.38300001-.2174702.28355733-.2671449.66159411-.1303122.99170751z"/><path id="Shape" d="m22.347 20.478c.4046724-.0000657.7694151-.244017.924-.618l.764-1.847c.1459579-.3316775.1010622-.7163639-.1173512-1.0055166-.2184134-.2891526-.5761647-.4375216-.9351117-.3878157-.3589471.0497059-.6629179.2897082-.7945371.6273323l-.765 1.853c-.1279557.3086131-.0933432.66074.0922534.9385324.1855967.2777924.4976587.4445517.8317466.4444676z"/><path id="Shape" d="m24.643 14.935c.4043083-.0004701.7685544-.2443532.923-.618l1.534-3.695c.2115251-.5103111-.0306889-1.09547494-.541-1.307s-1.0954749.03068889-1.307.541l-1.53 3.7c-.1279557.3086131-.0933432.66074.0922534.9385324.1855967.2777924.4976587.4445517.8317466.4444676z"/><path id="Shape" d="m48.1 9.577c.3301134.13665409.7080549.08681427.9914575-.13074528s.4292108-.56978636.3825-.924-.2788441-.65660063-.6089575-.79325472l-1.847-.764c-.3301134-.13683274-.7081502-.087158-.9917075.13031224s-.4295561.56969706-.383.92400003c.0465561.35430296.2785941.65685502.6087075.79368773z"/><path id="Shape" d="m38.315 4.444c-.1016421.24505388-.101742.52045409-.0002776.76558161s.2961765.43989022.5412776.54141839l3.7 1.53c.5056079.19242915 1.0725729-.05212637 1.2795881-.55193943.2070151-.49981306-.0209906-1.07363365-.5145881-1.29506057l-3.699-1.534c-.2454306-.10146941-.5211441-.10114171-.7663328.00091083-.2451888.10205254-.4397116.29744675-.5406672.54308917z"/><path id="Shape" d="m37 1c0-.55228475-.4477153-1-1-1h-12c-.5522847 0-1 .44771525-1 1 0 3.86599325 3.1340068 7 7 7s7-3.13400675 7-7zm-7 5c-2.3752386-.00261226-4.421918-1.67337089-4.9-4h9.8c-.478082 2.32662911-2.5247614 3.99738774-4.9 4z"/></g></g></svg>